{
  "accessors": [
    {
      "bufferView": 2,
      "componentType": 5126,
      "count": 738,
      "max": [
        6.214075088500977,
        20.96890640258789,
        1.3116244077682495
      ],
      "min": [
        -6.214075088500977,
        11.138338088989258,
        -0.7980380058288574
      ],
      "type": "VEC3"
    },
    {
      "bufferView": 2,
      "byteOffset": 8856,
      "componentType": 5126,
      "count": 738,
      "max": [
        0.9927023649215698,
        0.8473021984100342,
        0.9996793866157532
      ],
      "min": [
        -0.9914684891700745,
        -0.9995196461677551,
        -0.9991612434387207
      ],
      "type": "VEC3"
    },
    {
      "bufferView": 1,
      "componentType": 5126,
      "count": 738,
      "max": [
        0.36250001192092896,
        0.9921799898147583
      ],
      "min": [
        0.0,
        0.0
      ],
      "type": "VEC2"
    },
    {
      "bufferView": 0,
      "componentType": 5125,
      "count": 3633,
      "type": "SCALAR"
    },
    {
      "bufferView": 2,
      "byteOffset": 17712,
      "componentType": 5126,
      "count": 2234,
      "max": [
        5.916801929473877,
        18.644208908081055,
        2.5166900157928467
      ],
      "min": [
        -5.916801929473877,
        -0.02974800020456314,
        -4.557570934295654
      ],
      "type": "VEC3"
    },
    {
      "bufferView": 2,
      "byteOffset": 44520,
      "componentType": 5126,
      "count": 2234,
      "max": [
        0.9986304640769958,
        0.9999479055404663,
        0.9999939799308777
      ],
      "min": [
        -0.9986304640769958,
        -0.9986046552658081,
        -0.9998053312301636
      ],
      "type": "VEC3"
    },
    {
      "bufferView": 1,
      "byteOffset": 5904,
      "componentType": 5126,
      "count": 2234,
      "max": [
        1.8083000183105469,
        0.9917110204696655
      ],
      "min": [
        0.25793400406837463,
        0.005880999844521284
      ],
      "type": "VEC2"
    },
    {
      "bufferView": 0,
      "byteOffset": 14532,
      "componentType": 5125,
      "count": 8856,
      "type": "SCALAR"
    },
    {
      "bufferView": 2,
      "byteOffset": 71328,
      "componentType": 5126,
      "count": 1042,
      "max": [
        2.3053600788116455,
        26.458538055419922,
        3.8083300590515137
      ],
      "min": [
        -2.3053600788116455,
        -0.932200014591217,
        -6.065830230712891
      ],
      "type": "VEC3"
    },
    {
      "bufferView": 2,
      "byteOffset": 83832,
      "componentType": 5126,
      "count": 1042,
      "max": [
        0.9999327659606934,
        0.9999897480010986,
        1.0
      ],
      "min": [
        -0.9999327659606934,
        -0.9999327659606934,
        -1.0
      ],
      "type": "VEC3"
    },
    {
      "bufferView": 1,
      "byteOffset": 23776,
      "componentType": 5126,
      "count": 1042,
      "max": [
        0.9899830222129822,
        0.9918540120124817
      ],
      "min": [
        0.43442898988723755,
        -0.595890998840332
      ],
      "type": "VEC2"
    },
    {
      "bufferView": 0,
      "byteOffset": 49956,
      "componentType": 5125,
      "count": 3762,
      "type": "SCALAR"
    },
    {
      "bufferView": 2,
      "byteOffset": 96336,
      "componentType": 5126,
      "count": 559,
      "max": [
        5.051772594451904,
        19.487089157104492,
        1.1850690841674805
      ],
      "min": [
        -4.507352352142334,
        5.5861592292785645,
        -1.3108700513839722
      ],
      "type": "VEC3"
    },
    {
      "bufferView": 2,
      "byteOffset": 103044,
      "componentType": 5126,
      "count": 559,
      "max": [
        0.9995622038841248,
        0.9825154542922974,
        0.9999503493309021
      ],
      "min": [
        -0.9996100068092346,
        -0.9251465797424316,
        -0.999849259853363
      ],
      "type": "VEC3"
    },
    {
      "bufferView": 1,
      "byteOffset": 32112,
      "componentType": 5126,
      "count": 559,
      "max": [
        1.2417900562286377,
        1.5823500156402588
      ],
      "min": [
        0.01143100019544363,
        0.00634300010278821
      ],
      "type": "VEC2"
    },
    {
      "bufferView": 0,
      "byteOffset": 65004,
      "componentType": 5125,
      "count": 2268,
      "type": "SCALAR"
    },
    {
      "bufferView": 2,
      "byteOffset": 109752,
      "componentType": 5126,
      "count": 889,
      "max": [
        3.2547099590301514,
        22.22130584716797,
        1.4643945693969727
      ],
      "min": [
        -3.1964499950408936,
        16.11564064025879,
        -6.158605575561523
      ],
      "type": "VEC3"
    },
    {
      "bufferView": 2,
      "byteOffset": 120420,
      "componentType": 5126,
      "count": 889,
      "max": [
        0.9988651275634766,
        0.9977061748504639,
        0.9999051690101624
      ],
      "min": [
        -0.9996361136436462,
        -0.9998024106025696,
        -0.9945606589317322
      ],
      "type": "VEC3"
    },
    {
      "bufferView": 1,
      "byteOffset": 36584,
      "componentType": 5126,
      "count": 889,
      "max": [
        0.986274003982544,
        0.996694028377533
      ],
      "min": [
        0.5026689767837524,
        0.01567400060594082
      ],
      "type": "VEC2"
    },
    {
      "bufferView": 0,
      "byteOffset": 74076,
      "componentType": 5125,
      "count": 2556,
      "type": "SCALAR"
    },
    {
      "bufferView": 2,
      "byteOffset": 131088,
      "componentType": 5126,
      "count": 889,
      "max": [
        3.2547099590301514,
        22.22130584716797,
        1.4643945693969727
      ],
      "min": [
        -3.1964499950408936,
        16.11564064025879,
        -6.158605575561523
      ],
      "type": "VEC3"
    },
    {
      "bufferView": 2,
      "byteOffset": 141756,
      "componentType": 5126,
      "count": 889,
      "max": [
        0.9988651275634766,
        0.9977061748504639,
        0.9999051690101624
      ],
      "min": [
        -0.9996361136436462,
        -0.9998024106025696,
        -0.9945606589317322
      ],
      "type": "VEC3"
    },
    {
      "bufferView": 1,
      "byteOffset": 43696,
      "componentType": 5126,
      "count": 889,
      "max": [
        0.986274003982544,
        0.996694028377533
      ],
      "min": [
        0.5026689767837524,
        0.01567400060594082
      ],
      "type": "VEC2"
    },
    {
      "bufferView": 0,
      "byteOffset": 84300,
      "componentType": 5125,
      "count": 2556,
      "type": "SCALAR"
    },
    {
      "bufferView": 2,
      "byteOffset": 152424,
      "componentType": 5126,
      "count": 559,
      "max": [
        5.051772594451904,
        19.487089157104492,
        1.1850690841674805
      ],
      "min": [
        -4.507352352142334,
        5.5861592292785645,
        -1.3108700513839722
      ],
      "type": "VEC3"
    },
    {
      "bufferView": 2,
      "byteOffset": 159132,
      "componentType": 5126,
      "count": 559,
      "max": [
        0.9995622038841248,
        0.9825154542922974,
        0.9999503493309021
      ],
      "min": [
        -0.9996100068092346,
        -0.9251465797424316,
        -0.999849259853363
      ],
      "type": "VEC3"
    },
    {
      "bufferView": 1,
      "byteOffset": 50808,
      "componentType": 5126,
      "count": 559,
      "max": [
        1.2417900562286377,
        1.5823500156402588
      ],
      "min": [
        0.01143100019544363,
        0.00634300010278821
      ],
      "type": "VEC2"
    },
    {
      "bufferView": 0,
      "byteOffset": 94524,
      "componentType": 5125,
      "count": 2268,
      "type": "SCALAR"
    },
    {
      "bufferView": 2,
      "byteOffset": 165840,
      "componentType": 5126,
      "count": 1042,
      "max": [
        2.3053600788116455,
        26.458538055419922,
        3.8083300590515137
      ],
      "min": [
        -2.3053600788116455,
        -0.932200014591217,
        -6.065830230712891
      ],
      "type": "VEC3"
    },
    {
      "bufferView": 2,
      "byteOffset": 178344,
      "componentType": 5126,
      "count": 1042,
      "max": [
        0.9999327659606934,
        0.9999897480010986,
        1.0
      ],
      "min": [
        -0.9999327659606934,
        -0.9999327659606934,
        -1.0
      ],
      "type": "VEC3"
    },
    {
      "bufferView": 1,
      "byteOffset": 55280,
      "componentType": 5126,
      "count": 1042,
      "max": [
        0.9899830222129822,
        0.9918540120124817
      ],
      "min": [
        0.43442898988723755,
        -0.595890998840332
      ],
      "type": "VEC2"
    },
    {
      "bufferView": 0,
      "byteOffset": 103596,
      "componentType": 5125,
      "count": 3762,
      "type": "SCALAR"
    },
    {
      "bufferView": 2,
      "byteOffset": 190848,
      "componentType": 5126,
      "count": 2234,
      "max": [
        5.916801929473877,
        18.644208908081055,
        2.5166900157928467
      ],
      "min": [
        -5.916801929473877,
        -0.02974800020456314,
        -4.557570934295654
      ],
      "type": "VEC3"
    },
    {
      "bufferView": 2,
      "byteOffset": 217656,
      "componentType": 5126,
      "count": 2234,
      "max": [
        0.9986304640769958,
        0.9999479055404663,
        0.9999939799308777
      ],
      "min": [
        -0.9986304640769958,
        -0.9986046552658081,
        -0.9998053312301636
      ],
      "type": "VEC3"
    },
    {
      "bufferView": 1,
      "byteOffset": 63616,
      "componentType": 5126,
      "count": 2234,
      "max": [
        1.8083000183105469,
        0.9917110204696655
      ],
      "min": [
        0.25793400406837463,
        0.005880999844521284
      ],
      "type": "VEC2"
    },
    {
      "bufferView": 0,
      "byteOffset": 118644,
      "componentType": 5125,
      "count": 8856,
      "type": "SCALAR"
    },
    {
      "bufferView": 2,
      "byteOffset": 244464,
      "componentType": 5126,
      "count": 738,
      "max": [
        6.214075088500977,
        20.96890640258789,
        1.3116244077682495
      ],
      "min": [
        -6.214075088500977,
        11.138338088989258,
        -0.7980380058288574
      ],
      "type": "VEC3"
    },
    {
      "bufferView": 2,
      "byteOffset": 253320,
      "componentType": 5126,
      "count": 738,
      "max": [
        0.9927023649215698,
        0.8473021984100342,
        0.9996793866157532
      ],
      "min": [
        -0.9914684891700745,
        -0.9995196461677551,
        -0.9991612434387207
      ],
      "type": "VEC3"
    },
    {
      "bufferView": 1,
      "byteOffset": 81488,
      "componentType": 5126,
      "count": 738,
      "max": [
        0.36250001192092896,
        0.9921799898147583
      ],
      "min": [
        0.0,
        0.0
      ],
      "type": "VEC2"
    },
    {
      "bufferView": 0,
      "byteOffset": 154068,
      "componentType": 5125,
      "count": 3633,
      "type": "SCALAR"
    }
  ],
  "asset": {
    "extras": {
      "author": "Tigerar1 (https://sketchfab.com/allanromanreyes)",
      "license": "SKETCHFAB Standard (https://sketchfab.com/licenses)",
      "source": "https://sketchfab.com/3d-models/dark-magician-girl-8b711d48342c467988a7b1d62e42aa35",
      "title": "Dark Magician Girl"
    },
    "generator": "Sketchfab-16.0.0",
    "version": "2.0"
  },
  "bufferViews": [
    {
      "buffer": 0,
      "byteLength": 168600,
      "name": "floatBufferViews",
      "target": 34963
    },
    {
      "buffer": 0,
      "byteLength": 87392,
      "byteOffset": 168600,
      "byteStride": 8,
      "name": "floatBufferViews",
      "target": 34962
    },
    {
      "buffer": 0,
      "byteLength": 262176,
      "byteOffset": 255992,
      "byteStride": 12,
      "name": "floatBufferViews",
      "target": 34962
    }
  ],
  "buffers": [
    {
      "byteLength": 518168,
      "uri": "scene.bin"
    }
  ],
  "images": [
    {
      "uri": "textures/face_baseColor.png"
    },
    {
      "uri": "textures/Cloth_Blue_baseColor.png"
    },
    {
      "uri": "textures/Skin_baseColor.png"
    }
  ],
  "materials": [
    {
      "doubleSided": true,
      "name": "face",
      "pbrMetallicRoughness": {
        "baseColorTexture": {
          "index": 0
        },
        "metallicFactor": 0.0
      }
    },
    {
      "doubleSided": true,
      "name": "Cloth_Blue",
      "pbrMetallicRoughness": {
        "baseColorTexture": {
          "index": 1
        },
        "metallicFactor": 0.0
      }
    },
    {
      "doubleSided": true,
      "name": "Cloth_Blue_0",
      "pbrMetallicRoughness": {
        "baseColorTexture": {
          "index": 1
        },
        "metallicFactor": 0.0
      }
    },
    {
      "doubleSided": true,
      "name": "Skin",
      "pbrMetallicRoughness": {
        "baseColorTexture": {
          "index": 2
        },
        "metallicFactor": 0.0
      }
    },
    {
      "doubleSided": true,
      "name": "Hair_Low",
      "pbrMetallicRoughness": {
        "baseColorTexture": {
          "index": 2
        },
        "metallicFactor": 0.0
      }
    }
  ],
  "meshes": [
    {
      "name": "Object_0",
      "primitives": [
        {
          "attributes": {
            "NORMAL": 1,
            "POSITION": 0,
            "TEXCOORD_0": 2
          },
          "indices": 3,
          "material": 0,
          "mode": 4
        }
      ]
    },
    {
      "name": "Object_1",
      "primitives": [
        {
          "attributes": {
            "NORMAL": 5,
            "POSITION": 4,
            "TEXCOORD_0": 6
          },
          "indices": 7,
          "material": 1,
          "mode": 4
        }
      ]
    },
    {
      "name": "Object_2",
      "primitives": [
        {
          "attributes": {
            "NORMAL": 9,
            "POSITION": 8,
            "TEXCOORD_0": 10
          },
          "indices": 11,
          "material": 2,
          "mode": 4
        }
      ]
    },
    {
      "name": "Object_3",
      "primitives": [
        {
          "attributes": {
            "NORMAL": 13,
            "POSITION": 12,
            "TEXCOORD_0": 14
          },
          "indices": 15,
          "material": 3,
          "mode": 4
        }
      ]
    },
    {
      "name": "Object_4",
      "primitives": [
        {
          "attributes": {
            "NORMAL": 17,
            "POSITION": 16,
            "TEXCOORD_0": 18
          },
          "indices": 19,
          "material": 4,
          "mode": 4
        }
      ]
    },
    {
      "name": "Object_5",
      "primitives": [
        {
          "attributes": {
            "NORMAL": 21,
            "POSITION": 20,
            "TEXCOORD_0": 22
          },
          "indices": 23,
          "material": 4,
          "mode": 4
        }
      ]
    },
    {
      "name": "Object_6",
      "primitives": [
        {
          "attributes": {
            "NORMAL": 25,
            "POSITION": 24,
            "TEXCOORD_0": 26
          },
          "indices": 27,
          "material": 3,
          "mode": 4
        }
      ]
    },
    {
      "name": "Object_7",
      "primitives": [
        {
          "attributes": {
            "NORMAL": 29,
            "POSITION": 28,
            "TEXCOORD_0": 30
          },
          "indices": 31,
          "material": 2,
          "mode": 4
        }
      ]
    },
    {
      "name": "Object_8",
      "primitives": [
        {
          "attributes": {
            "NORMAL": 33,
            "POSITION": 32,
            "TEXCOORD_0": 34
          },
          "indices": 35,
          "material": 1,
          "mode": 4
        }
      ]
    },
    {
      "name": "Object_9",
      "primitives": [
        {
          "attributes": {
            "NORMAL": 37,
            "POSITION": 36,
            "TEXCOORD_0": 38
          },
          "indices": 39,
          "material": 0,
          "mode": 4
        }
      ]
    }
  ],
  "nodes": [
    {
      "children": [
        1
      ],
      "matrix": [
        1.0,
        0.0,
        0.0,
        0.0,
        0.0,
        2.220446049250313e-16,
        -1.0,
        0.0,
        0.0,
        1.0,
        2.220446049250313e-16,
        0.0,
        0.0,
        0.0,
        0.0,
        1.0
      ],
      "name": "Sketchfab_model"
    },
    {
      "children": [
        2
      ],
      "matrix": [
        1.0,
        0.0,
        0.0,
        0.0,
        0.0,
        -4.371139006309477e-08,
        0.999999999999999,
        0.0,
        0.0,
        -0.999999999999999,
        -4.371139006309477e-08,
        0.0,
        0.0,
        0.0,
        0.0,
        1.0
      ],
      "name": "Collada visual scene group"
    },
    {
      "children": [
        3,
        4,
        5,
        6,
        7,
        8,
        9,
        10,
        11,
        12
      ],
      "name": "Object_2"
    },
    {
      "mesh": 0,
      "name": "Object_3"
    },
    {
      "mesh": 1,
      "name": "Object_4"
    },
    {
      "mesh": 2,
      "name": "Object_5"
    },
    {
      "mesh": 3,
      "name": "Object_6"
    },
    {
      "mesh": 4,
      "name": "Object_7"
    },
    {
      "mesh": 5,
      "name": "Object_8"
    },
    {
      "mesh": 6,
      "name": "Object_9"
    },
    {
      "mesh": 7,
      "name": "Object_10"
    },
    {
      "mesh": 8,
      "name": "Object_11"
    },
    {
      "mesh": 9,
      "name": "Object_12"
    }
  ],
  "samplers": [
    {
      "magFilter": 9729,
      "minFilter": 9987,
      "wrapS": 10497,
      "wrapT": 10497
    }
  ],
  "scene": 0,
  "scenes": [
    {
      "name": "Sketchfab_Scene",
      "nodes": [
        0
      ]
    }
  ],
  "textures": [
    {
      "sampler": 0,
      "source": 0
    },
    {
      "sampler": 0,
      "source": 1
    },
    {
      "sampler": 0,
      "source": 2
    }
  ]
}
